<svg xmlns="http://www.w3.org/2000/svg" viewBox="0 0 1600 900" role="img" aria-labelledby="title desc">
  <title id="title">Loomfall — Cloth Physics Lab</title>
  <desc id="desc">A deep navy physics lab banner with an amber cloth grid and floating objects.</desc>
  <defs>
    <linearGradient id="bg" x1="0" x2="1" y1="0" y2="1">
      <stop offset="0" stop-color="#07111f"/>
      <stop offset="0.55" stop-color="#101d2d"/>
      <stop offset="1" stop-color="#18273a"/>
    </linearGradient>
    <linearGradient id="cloth" x1="0" x2="1" y1="0" y2="1">
      <stop offset="0" stop-color="#f6c85f"/>
      <stop offset="0.5" stop-color="#ef8e5c"/>
      <stop offset="1" stop-color="#c95d91"/>
    </linearGradient>
    <linearGradient id="glow" x1="0" x2="1">
      <stop offset="0" stop-color="#6de1d0" stop-opacity="0"/>
      <stop offset="0.5" stop-color="#6de1d0" stop-opacity="0.65"/>
      <stop offset="1" stop-color="#6de1d0" stop-opacity="0"/>
    </linearGradient>
    <filter id="shadow" x="-30%" y="-30%" width="160%" height="180%">
      <feGaussianBlur stdDeviation="18"/>
    </filter>
    <filter id="soft" x="-20%" y="-20%" width="140%" height="140%">
      <feGaussianBlur stdDeviation="7"/>
    </filter>
    <pattern id="microgrid" width="56" height="56" patternUnits="userSpaceOnUse">
      <path d="M56 0H0V56" fill="none" stroke="#b7c9dc" stroke-opacity="0.09" stroke-width="1"/>
    </pattern>
  </defs>
  <rect width="1600" height="900" fill="url(#bg)"/>
  <rect width="1600" height="900" fill="url(#microgrid)"/>
  <ellipse cx="825" cy="675" rx="575" ry="112" fill="#020810" opacity="0.65" filter="url(#shadow)"/>
  <path d="M172 682 C380 624 442 696 603 659 C766 622 866 694 1007 651 C1147 609 1270 650 1431 593" fill="none" stroke="url(#glow)" stroke-width="3"/>
  <g opacity="0.23" fill="none" stroke="#6de1d0" stroke-width="2">
    <circle cx="1190" cy="203" r="74"/>
    <circle cx="1190" cy="203" r="104"/>
    <path d="M1062 203h256M1190 75v256"/>
  </g>
  <g transform="translate(352 230) skewX(-8)">
    <path d="M0 28 C95 7 214 49 315 20 C424 -12 546 49 648 14 C763 -26 864 41 1016 2 L1033 441 C911 461 796 426 684 466 C568 507 450 443 332 478 C216 512 112 454 0 485Z" fill="#e86e84" opacity="0.21" filter="url(#soft)"/>
    <path d="M0 28 C95 7 214 49 315 20 C424 -12 546 49 648 14 C763 -26 864 41 1016 2 L1033 441 C911 461 796 426 684 466 C568 507 450 443 332 478 C216 512 112 454 0 485Z" fill="url(#cloth)" fill-opacity="0.74" stroke="#ffd77a" stroke-opacity="0.9" stroke-width="4"/>
    <g fill="none" stroke="#ffe7a4" stroke-opacity="0.65" stroke-width="2">
      <path d="M0 102 C118 75 203 122 318 94 C434 67 537 124 652 91 C774 56 884 111 1025 79"/>
      <path d="M0 177 C114 148 216 198 318 163 C439 131 543 194 657 161 C781 125 891 179 1029 146"/>
      <path d="M0 256 C110 223 210 275 324 237 C447 201 551 273 665 238 C785 204 895 258 1031 221"/>
      <path d="M0 337 C119 302 214 354 330 315 C449 282 561 353 676 316 C801 278 900 335 1032 296"/>
      <path d="M0 417 C120 388 221 438 333 399 C455 359 557 432 686 397 C805 365 911 414 1033 376"/>
      <path d="M78 15 C57 153 90 291 53 488"/>
      <path d="M184 30 C168 153 203 310 172 478"/>
      <path d="M294 27 C278 155 320 297 288 484"/>
      <path d="M408 12 C390 160 437 304 409 456"/>
      <path d="M523 23 C510 152 555 318 525 461"/>
      <path d="M640 15 C626 153 678 308 644 471"/>
      <path d="M757 10 C742 152 787 302 763 449"/>
      <path d="M874 13 C863 150 905 279 886 429"/>
      <path d="M987 5 C973 145 1014 266 1002 400"/>
    </g>
    <g fill="#ffd369" stroke="#172438" stroke-width="6">
      <circle cx="0" cy="28" r="11"/><circle cx="1030" cy="3" r="11"/>
      <circle cx="0" cy="486" r="11"/><circle cx="1030" cy="440" r="11"/>
    </g>
  </g>
  <g transform="translate(1170 354)">
    <circle cx="0" cy="0" r="72" fill="#6de1d0" opacity="0.14" filter="url(#soft)"/>
    <circle cx="0" cy="0" r="55" fill="#24374a" stroke="#6de1d0" stroke-width="4"/>
    <path d="M-36 -8 L0 -47 L37 -10 L22 37 L-26 31 Z" fill="#efb259" stroke="#fff0bd" stroke-width="3"/>
    <path d="M0 -47V-80M37 -10l31 17M22 37l13 32M-26 31l-30 24M-36 -8l-32 -14" stroke="#6de1d0" stroke-width="3" stroke-linecap="round"/>
  </g>
  <g transform="translate(186 166)">
    <circle cx="0" cy="0" r="46" fill="#d974a7" stroke="#ffd77a" stroke-width="4"/>
    <circle cx="-14" cy="-14" r="8" fill="#ffe7a4" opacity="0.8"/>
  </g>
  <g fill="#d8e6f0" font-family="ui-monospace, SFMono-Regular, Menlo, monospace">
    <text x="116" y="728" font-size="20" letter-spacing="5" fill="#6de1d0">INTERACTIVE PHYSICS LAB / 01</text>
    <text x="112" y="810" font-size="76" font-weight="700" letter-spacing="-2" fill="#f8fbff">LOOMFALL</text>
    <text x="120" y="853" font-size="22" letter-spacing="7" fill="#f6c85f">CLOTH • COLLISION • CURIOSITY</text>
  </g>
</svg>
